<?xml version="1.0" standalone="no"?>
<!DOCTYPE svg PUBLIC "-//W3C//DTD SVG 20010904//EN"
 "http://www.w3.org/TR/2001/REC-SVG-20010904/DTD/svg10.dtd">
<svg version="1.0" xmlns="http://www.w3.org/2000/svg"
 width="478.224225pt" height="390.914289pt" viewBox="0 0 478.224225 390.914289"
 preserveAspectRatio="xMidYMid meet">
<metadata>
Created by potrace 1.12, written by Peter Selinger 2001-2015
</metadata>
<g transform="translate(-272.775775,681.970305) scale(0.100000,-0.100000)"
fill="#ffffff" stroke="none">
<path d="M7154 6805 c-122 -27 -226 -101 -307 -219 -65 -96 -139 -264 -417
-941 -144 -352 -266 -643 -270 -648 -3 -4 -120 178 -259 405 -140 227 -301
491 -360 585 l-106 173 -73 0 c-72 0 -73 0 -61 -22 31 -57 860 -1402 873
-1416 10 -10 18 2 41 60 16 40 98 242 183 448 85 206 194 472 242 590 232 565
283 671 369 763 75 81 104 91 266 95 l140 4 48 63 c26 34 47 65 47 69 0 12
-294 5 -356 -9z"/>
<path d="M2732 6782 c7 -10 31 -41 53 -70 l40 -51 125 -1 c282 -2 319 -49 620
-775 73 -176 211 -511 306 -744 95 -233 175 -426 178 -429 3 -3 8 -3 9 -1 5 5
414 674 576 941 69 114 130 207 134 205 5 -1 176 -333 381 -737 l372 -735 73
-3 73 -3 -197 388 c-489 963 -690 1353 -696 1353 -4 0 -33 -44 -64 -97 -32
-54 -163 -269 -290 -478 -128 -209 -256 -419 -284 -467 -29 -49 -55 -88 -59
-88 -7 0 -55 114 -258 610 -293 719 -348 843 -422 956 -80 124 -193 209 -310
233 -29 6 -125 11 -213 11 -153 0 -160 -1 -147 -18z"/>
<path d="M6650 6779 c-200 -29 -317 -122 -472 -374 -73 -120 -371 -666 -371
-680 0 -19 67 -125 74 -117 3 4 71 126 149 272 278 516 358 641 488 761 40 37
106 85 149 107 80 42 78 45 -17 31z"/>
<path d="M3566 6737 c220 -121 288 -212 651 -877 74 -135 137 -248 141 -252 4
-4 22 21 41 56 l34 64 -43 78 c-323 590 -394 707 -489 801 -90 90 -203 142
-341 158 l-55 6 61 -34z"/>
<path d="M6880 6741 c-34 -19 -129 -112 -163 -160 -14 -22 -27 -25 -119 -34
l-103 -10 -45 -65 c-25 -36 -47 -70 -49 -75 -2 -6 34 -8 103 -5 79 4 106 3
103 -6 -3 -6 -28 -64 -57 -129 l-53 -118 -121 2 -121 2 -42 -78 c-24 -43 -42
-80 -40 -81 2 -2 56 -9 120 -15 64 -7 117 -16 117 -21 0 -11 -111 -270 -121
-281 -6 -7 -188 21 -249 38 -21 6 -107 -154 -89 -165 6 -5 64 -23 128 -41 64
-18 118 -34 120 -35 2 -2 -18 -53 -44 -113 -44 -102 -47 -113 -35 -141 7 -16
15 -30 19 -30 3 0 24 44 45 98 84 208 455 1071 496 1152 59 117 133 222 199
281 58 52 58 60 1 30z"/>
<path d="M3372 6681 c83 -77 142 -165 213 -313 48 -103 346 -800 460 -1078 26
-63 49 -117 50 -118 2 -2 10 9 19 26 14 28 13 34 -29 135 -24 59 -41 108 -37
110 4 3 61 21 127 42 66 20 122 39 124 41 8 8 -73 164 -85 164 -6 0 -61 -11
-122 -25 -61 -14 -117 -25 -125 -25 -8 0 -38 56 -75 144 -34 80 -62 147 -62
149 0 3 54 11 120 17 74 8 120 17 120 24 -1 6 -18 42 -39 80 l-39 68 -123 -1
-124 -1 -53 117 c-28 65 -52 124 -52 131 0 9 23 11 100 6 55 -4 100 -3 100 1
0 4 -21 39 -46 76 l-47 68 -99 7 -99 7 -45 59 c-43 55 -135 138 -154 138 -5 0
-17 3 -27 7 -10 4 12 -21 49 -56z"/>
<path d="M4850 6155 c0 -2 67 -131 149 -287 81 -156 194 -373 251 -483 56
-110 182 -355 280 -545 98 -190 191 -371 206 -402 24 -50 32 -58 56 -58 15 0
28 2 28 5 0 3 -11 28 -25 54 l-24 49 124 86 c68 48 130 89 137 91 8 3 25 -16
42 -48 l29 -52 13 30 c10 26 10 34 -6 60 -118 197 -824 1369 -859 1427 -36 61
-51 78 -70 78 -17 0 -21 -4 -17 -15 3 -8 9 -22 12 -30 5 -13 -12 -15 -124 -15
l-130 0 -12 30 c-9 21 -19 30 -36 30 -13 0 -24 -2 -24 -5z m497 -312 c37 -65
69 -120 71 -124 1 -3 -37 -9 -85 -13 -48 -4 -111 -10 -140 -13 l-52 -6 -63
124 c-34 68 -64 127 -66 131 -2 4 41 9 95 11 54 1 114 4 135 5 l36 2 69 -117z
m250 -423 c41 -68 75 -128 76 -133 2 -10 -264 -88 -276 -80 -4 2 -41 72 -82
153 l-75 149 33 6 c17 3 66 12 107 20 139 25 132 28 217 -115z m248 -417 c32
-54 66 -112 77 -130 l18 -31 -136 -76 c-76 -42 -138 -75 -139 -74 -13 19 -155
299 -155 306 0 10 261 112 271 106 3 -2 32 -47 64 -101z"/>
<path d="M4438 5173 c-177 -296 -325 -541 -327 -546 -1 -4 3 -21 9 -38 l13
-30 30 53 c16 29 31 54 32 56 3 4 253 -167 260 -178 3 -5 -6 -32 -20 -60 l-25
-50 32 0 33 0 169 333 c93 182 203 395 244 471 73 137 74 140 59 170 -14 29
-16 29 -23 11 -4 -11 -25 -52 -46 -91 l-39 -72 -127 34 c-70 19 -132 36 -139
38 -8 4 2 31 32 83 25 43 60 104 78 136 l32 59 68 -6 67 -6 -41 82 c-23 46
-43 84 -44 86 -2 2 -149 -239 -327 -535z m157 -119 c66 -25 124 -49 128 -53 6
-6 -125 -278 -149 -309 -4 -5 -262 137 -268 147 -7 11 144 261 158 261 6 0 65
-21 131 -46z"/>
<path d="M4786 4810 l-218 -431 74 3 73 3 180 357 180 357 -35 71 -36 71 -218
-431z"/>
<path d="M6507 3482 c-35 -38 -6 -92 49 -92 26 0 54 30 54 57 0 47 -71 71
-103 35z"/>
<path d="M5000 3200 l0 -280 45 0 45 0 0 53 c0 47 4 57 33 85 18 18 37 32 42
32 6 -1 38 -39 73 -85 l62 -85 55 0 55 0 -87 121 -86 120 79 80 79 79 -56 0
-55 0 -91 -85 c-50 -47 -94 -85 -97 -85 -3 0 -6 74 -6 165 l0 165 -45 0 -45 0
0 -280z"/>
<path d="M6730 3200 l0 -280 45 0 45 0 0 280 0 280 -45 0 -45 0 0 -280z"/>
<path d="M3292 3428 c3 -7 42 -125 88 -261 l82 -248 56 3 56 3 61 187 c33 103
62 189 65 192 3 3 35 -82 70 -189 l64 -195 56 0 55 0 80 246 c44 136 81 253
83 260 3 10 -8 14 -41 14 l-45 0 -62 -192 c-34 -106 -65 -196 -69 -201 -4 -4
-36 83 -72 193 l-64 200 -49 -2 -49 -3 -67 -200 -67 -200 -65 200 -65 200 -53
3 c-40 2 -51 0 -48 -10z"/>
<path d="M5494 3348 c3 -50 6 -167 6 -260 l0 -168 45 0 45 0 0 80 0 80 73 0
72 0 54 -79 53 -79 54 -4 c30 -1 54 -2 54 0 0 1 -27 41 -60 88 l-59 86 32 22
c52 35 77 81 77 143 0 58 -15 96 -52 130 -47 44 -87 53 -249 53 l-152 0 7 -92z
m305 -3 c39 -20 60 -80 42 -123 -20 -47 -63 -65 -160 -66 l-86 -1 -3 94 c-1
52 0 101 3 109 4 12 21 14 90 9 46 -3 98 -13 114 -22z"/>
<path d="M4291 3315 c-51 -16 -107 -66 -127 -112 -19 -44 -18 -137 2 -176 57
-112 203 -150 317 -83 106 62 129 224 44 314 -53 58 -157 83 -236 57z m140
-88 c96 -64 63 -219 -50 -234 -85 -12 -149 54 -138 140 13 100 109 148 188 94z"/>
<path d="M4861 3320 c-18 -4 -46 -17 -61 -29 l-29 -21 -3 23 c-2 18 -10 23
-45 25 l-43 3 0 -200 0 -201 45 0 45 0 0 115 c0 124 10 160 52 189 12 9 37 16
55 16 32 0 33 1 33 45 0 25 -3 45 -7 44 -5 -1 -23 -5 -42 -9z"/>
<path d="M6083 3300 c-48 -21 -47 -20 -31 -55 13 -29 15 -30 61 -10 88 36 177
4 177 -64 0 -16 -13 -19 -89 -24 -128 -8 -181 -42 -181 -115 0 -51 24 -87 70
-106 57 -23 109 -20 164 9 l46 24 0 -22 c0 -20 4 -22 40 -19 l40 4 0 148 c0
136 -2 150 -23 181 -12 19 -38 42 -57 51 -49 25 -161 24 -217 -2z m207 -240
c0 -48 -39 -80 -96 -80 -74 0 -108 47 -67 92 13 14 31 18 90 18 l73 0 0 -30z"/>
<path d="M6510 3120 l0 -200 45 0 45 0 0 200 0 200 -45 0 -45 0 0 -200z"/>
</g>
</svg>
